<?xml version="1.0" encoding="utf-8"?>
<!-- Generator: Adobe Illustrator 24.2.3, SVG Export Plug-In . SVG Version: 6.00 Build 0)  -->
<svg version="1.1" id="Layer_1" xmlns="http://www.w3.org/2000/svg" xmlns:xlink="http://www.w3.org/1999/xlink" x="0px" y="0px"
	 viewBox="0 0 195.01 109" style="enable-background:new 0 0 195.01 109;" xml:space="preserve">
<style type="text/css">
	.st0{fill:#5080BF;}
</style>
<g>
	<g>
		<path class="st0" d="M40.68,95.42c-7.14-2.79,14.81-27.86,17.46-30.42c8.75-8.45,19.03-15.22,30.12-20.19
			c26.56-11.91,56.75-12.8,85.19-8.89c-0.47-1.78-0.94-3.55-1.41-5.33c-7.05,8.18-14.1,16.35-21.15,24.53
			c-2.68,3.11,1.63,7.58,4.56,4.56c7.76-7.99,15.5-15.98,23.25-23.98c1.2-1.24,1.27-3.34,0-4.58c-8.61-8.33-18.46-15.07-29.38-20.01
			c-3.78-1.71-7.08,3.89-3.27,5.6c10.44,4.71,19.84,11.02,28.08,18.98c0-1.53,0-3.05,0-4.58c-7.75,8-15.5,15.99-23.24,23.99
			c1.52,1.52,3.04,3.04,4.56,4.56c7.03-8.19,14.07-16.39,21.1-24.58c1.36-1.58,1.19-4.98-1.41-5.33
			c-32.85-4.45-67.74-2.71-97.22,13.87C65.66,50.53,54.76,59.71,46.33,71c-2.87,3.84-17.93,24.63-6.41,27.16
			C41.74,98.57,42.37,96.08,40.68,95.42L40.68,95.42z"/>
	</g>
</g>
</svg>
