<?xml version="1.0" encoding="utf-8"?>
<!-- Generator: Adobe Illustrator 24.2.3, SVG Export Plug-In . SVG Version: 6.00 Build 0)  -->
<svg version="1.1" id="Layer_1" xmlns="http://www.w3.org/2000/svg" xmlns:xlink="http://www.w3.org/1999/xlink" x="0px" y="0px"
	 viewBox="0 0 195.01 195.01" style="enable-background:new 0 0 195.01 195.01;" xml:space="preserve">
<style type="text/css">
	.st0{fill:#5080BF;}
</style>
<g>
	<g>
		<path class="st0" d="M172.68,160.94c-2.37-18.64-9.06-36.59-19.62-52.14c-9.4-13.85-24.17-29.27-42.2-29.64
			C99.95,78.94,95.44,90.15,92.56,99c-2.5,7.69-4.9,18.1-2.15,26.04c1.51,4.36,5.35,6.48,9.39,3.44c4.12-3.11,4.31-8.95,3.93-13.66
			c-0.68-8.42-4.06-16.64-9.08-23.4c-12.5-16.84-35.61-22.56-54.74-14.23c-4.37,1.9-8.15-4.58-3.76-6.44
			c21.41-9.08,47.07-4.21,62.22,13.97c6.78,8.13,11.19,18.05,12.34,28.59c1.05,9.58-1.69,21.7-12.8,23.66
			c-9.81,1.73-14.72-7.75-15.37-16.04c-0.92-11.8,2.53-24.52,8.14-34.82c5.69-10.44,14.06-14.86,25.91-12.48
			c10.58,2.13,19.95,8.37,27.52,15.85c18.95,18.73,29.9,45.26,32.8,71.46C177.24,163.67,173.02,163.6,172.68,160.94L172.68,160.94z"
			/>
	</g>
	<g>
		<path class="st0" d="M50.65,60.21C39.69,67.59,27.97,74.1,16.39,80.46c0.26-2.03,0.52-4.06,0.79-6.09
			c8.7,6.89,18.49,12.14,29.01,15.67c4.49,1.51,2.59,8.63-1.97,7.14c-11.87-3.87-22.67-9.68-32.53-17.33
			c-1.99-1.55-1.18-4.99,0.79-6.09c11.73-6.57,23.82-12.97,36.25-18.12C51.47,54.5,52.86,58.72,50.65,60.21L50.65,60.21z"/>
	</g>
</g>
</svg>
